<?xml version="1.0" encoding="utf-8"?>
<svg version="1.1" xmlns:xlink="http://www.w3.org/1999/xlink" width="25px" height="26px" xmlns="http://www.w3.org/2000/svg">
  <g transform="matrix(1 0 0 1 -1061 -58 )">
    <path d="M 15.33203125 15.9453125  C 16.6491386217949 14.5755208333333  17.3076923076923 12.9270833333333  17.3076923076923 11  C 17.3076923076923 9.07291666666666  16.6491386217949 7.42447916666667  15.33203125 6.0546875  C 14.0149238782051 4.68489583333333  12.4298878205128 4  10.5769230769231 4  C 8.72395833333333 4  7.13892227564103 4.68489583333333  5.82181490384615 6.0546875  C 4.50470753205128 7.42447916666667  3.84615384615385 9.07291666666666  3.84615384615385 11  C 3.84615384615385 12.9270833333333  4.50470753205128 14.5755208333333  5.82181490384615 15.9453125  C 7.13892227564103 17.3151041666667  8.72395833333333 18  10.5769230769231 18  C 12.4298878205128 18  14.0149238782051 17.3151041666667  15.33203125 15.9453125  Z M 24.4441105769231 22.59375  C 24.814703525641 22.9791666666667  25 23.4479166666667  25 24  C 25 24.5416666666667  24.8096955128205 25.0104166666667  24.4290865384615 25.40625  C 24.0484775641026 25.8020833333333  23.5977564102564 26  23.0769230769231 26  C 22.5360576923077 26  22.0853365384615 25.8020833333333  21.7247596153846 25.40625  L 16.5715144230769 20.0625  C 14.7786458333333 21.3541666666667  12.7804487179487 22  10.5769230769231 22  C 9.14463141025641 22  7.77493990384615 21.7109375  6.46784855769231 21.1328125  C 5.16075721153846 20.5546875  4.03395432692308 19.7734375  3.08743990384615 18.7890625  C 2.14092548076923 17.8046875  1.38972355769231 16.6328125  0.833834134615385 15.2734375  C 0.277944711538462 13.9140625  0 12.4895833333333  0 11  C 0 9.51041666666666  0.277944711538462 8.0859375  0.833834134615385 6.7265625  C 1.38972355769231 5.3671875  2.14092548076923 4.1953125  3.08743990384615 3.2109375  C 4.03395432692308 2.2265625  5.16075721153846 1.4453125  6.46784855769231 0.867187500000001  C 7.77493990384615 0.289062499999999  9.14463141025641 0  10.5769230769231 0  C 12.0092147435897 0  13.37890625 0.289062499999999  14.6859975961538 0.867187500000001  C 15.9930889423077 1.4453125  17.1198918269231 2.2265625  18.06640625 3.2109375  C 19.0129206730769 4.1953125  19.7641225961538 5.3671875  20.3200120192308 6.7265625  C 20.8759014423077 8.0859375  21.1538461538462 9.51041666666666  21.1538461538462 11  C 21.1538461538462 13.2916666666667  20.5328525641026 15.3697916666667  19.2908653846154 17.234375  L 24.4441105769231 22.59375  Z " fill-rule="nonzero" fill="#000000" stroke="none" transform="matrix(1 0 0 1 1061 58 )" />
  </g>
</svg>